<svg width="143" height="144" viewBox="0 0 143 144" fill="none" xmlns="http://www.w3.org/2000/svg">
<path d="M143 72.5C143 86.6414 138.807 100.465 130.95 112.223C123.094 123.981 111.927 133.146 98.8619 138.557C85.797 143.969 71.4207 145.385 57.5511 142.626C43.6815 139.867 30.9414 133.058 20.9419 123.058C10.9425 113.059 4.13276 100.319 1.37391 86.449C-1.38493 72.5793 0.0310088 58.2031 5.44267 45.1381C10.8543 32.0732 20.0187 20.9064 31.7768 13.0499C43.5349 5.1934 57.3587 1 71.5001 1V72.5H143Z" fill="#737C97"/>
<g filter="url(#filter0_f_85_150)">
<rect x="59.0001" y="112" width="22" height="22" fill="#737C97"/>
<rect x="60.5001" y="113.5" width="19" height="19" stroke="white" stroke-width="3"/>
</g>
<g filter="url(#filter1_f_85_150)">
<rect x="59.0001" y="94" width="22" height="22" fill="#737C97"/>
<rect x="60.5001" y="95.5" width="19" height="19" stroke="white" stroke-width="3"/>
</g>
<g filter="url(#filter2_f_85_150)">
<rect x="59.0001" y="76" width="22" height="22" fill="#737C97"/>
<rect x="60.5001" y="77.5" width="19" height="19" stroke="white" stroke-width="3"/>
</g>
<g filter="url(#filter3_f_85_150)">
<rect x="40.0001" y="76" width="22" height="22" fill="#737C97"/>
<rect x="41.5001" y="77.5" width="19" height="19" stroke="white" stroke-width="3"/>
</g>
<g filter="url(#filter4_f_85_150)">
<rect x="59.0001" y="58" width="22" height="22" fill="#737C97"/>
<rect x="60.5001" y="59.5" width="19" height="19" stroke="white" stroke-width="3"/>
</g>
<g filter="url(#filter5_f_85_150)">
<rect x="78.0001" y="39" width="22" height="22" fill="#737C97"/>
<rect x="79.5001" y="40.5" width="19" height="19" stroke="white" stroke-width="3"/>
</g>
<g filter="url(#filter6_f_85_150)">
<rect x="97.0001" y="20" width="22" height="22" fill="#737C97"/>
<rect x="98.5001" y="21.5" width="19" height="19" stroke="white" stroke-width="3"/>
</g>
<g filter="url(#filter7_f_85_150)">
<rect x="116" y="1" width="22" height="22" fill="#737C97"/>
<rect x="117.5" y="2.5" width="19" height="19" stroke="white" stroke-width="3"/>
</g>
<g filter="url(#filter8_f_85_150)">
<rect x="116" y="39" width="22" height="22" fill="#737C97"/>
<rect x="117.5" y="40.5" width="19" height="19" stroke="white" stroke-width="3"/>
</g>
<defs>
<filter id="filter0_f_85_150" x="58.0001" y="111" width="24" height="24" filterUnits="userSpaceOnUse" color-interpolation-filters="sRGB">
<feFlood flood-opacity="0" result="BackgroundImageFix"/>
<feBlend mode="normal" in="SourceGraphic" in2="BackgroundImageFix" result="shape"/>
<feGaussianBlur stdDeviation="0.5" result="effect1_foregroundBlur_85_150"/>
</filter>
<filter id="filter1_f_85_150" x="58.0001" y="93" width="24" height="24" filterUnits="userSpaceOnUse" color-interpolation-filters="sRGB">
<feFlood flood-opacity="0" result="BackgroundImageFix"/>
<feBlend mode="normal" in="SourceGraphic" in2="BackgroundImageFix" result="shape"/>
<feGaussianBlur stdDeviation="0.5" result="effect1_foregroundBlur_85_150"/>
</filter>
<filter id="filter2_f_85_150" x="58.0001" y="75" width="24" height="24" filterUnits="userSpaceOnUse" color-interpolation-filters="sRGB">
<feFlood flood-opacity="0" result="BackgroundImageFix"/>
<feBlend mode="normal" in="SourceGraphic" in2="BackgroundImageFix" result="shape"/>
<feGaussianBlur stdDeviation="0.5" result="effect1_foregroundBlur_85_150"/>
</filter>
<filter id="filter3_f_85_150" x="39.0001" y="75" width="24" height="24" filterUnits="userSpaceOnUse" color-interpolation-filters="sRGB">
<feFlood flood-opacity="0" result="BackgroundImageFix"/>
<feBlend mode="normal" in="SourceGraphic" in2="BackgroundImageFix" result="shape"/>
<feGaussianBlur stdDeviation="0.5" result="effect1_foregroundBlur_85_150"/>
</filter>
<filter id="filter4_f_85_150" x="58.0001" y="57" width="24" height="24" filterUnits="userSpaceOnUse" color-interpolation-filters="sRGB">
<feFlood flood-opacity="0" result="BackgroundImageFix"/>
<feBlend mode="normal" in="SourceGraphic" in2="BackgroundImageFix" result="shape"/>
<feGaussianBlur stdDeviation="0.5" result="effect1_foregroundBlur_85_150"/>
</filter>
<filter id="filter5_f_85_150" x="77.0001" y="38" width="24" height="24" filterUnits="userSpaceOnUse" color-interpolation-filters="sRGB">
<feFlood flood-opacity="0" result="BackgroundImageFix"/>
<feBlend mode="normal" in="SourceGraphic" in2="BackgroundImageFix" result="shape"/>
<feGaussianBlur stdDeviation="0.5" result="effect1_foregroundBlur_85_150"/>
</filter>
<filter id="filter6_f_85_150" x="96.0001" y="19" width="24" height="24" filterUnits="userSpaceOnUse" color-interpolation-filters="sRGB">
<feFlood flood-opacity="0" result="BackgroundImageFix"/>
<feBlend mode="normal" in="SourceGraphic" in2="BackgroundImageFix" result="shape"/>
<feGaussianBlur stdDeviation="0.5" result="effect1_foregroundBlur_85_150"/>
</filter>
<filter id="filter7_f_85_150" x="115" y="0" width="24" height="24" filterUnits="userSpaceOnUse" color-interpolation-filters="sRGB">
<feFlood flood-opacity="0" result="BackgroundImageFix"/>
<feBlend mode="normal" in="SourceGraphic" in2="BackgroundImageFix" result="shape"/>
<feGaussianBlur stdDeviation="0.5" result="effect1_foregroundBlur_85_150"/>
</filter>
<filter id="filter8_f_85_150" x="115" y="38" width="24" height="24" filterUnits="userSpaceOnUse" color-interpolation-filters="sRGB">
<feFlood flood-opacity="0" result="BackgroundImageFix"/>
<feBlend mode="normal" in="SourceGraphic" in2="BackgroundImageFix" result="shape"/>
<feGaussianBlur stdDeviation="0.5" result="effect1_foregroundBlur_85_150"/>
</filter>
</defs>
</svg>
